<svg width="1024" height="1024" viewBox="0 0 1024 1024" fill="none" xmlns="http://www.w3.org/2000/svg">
<path d="M540.866 209H495.581V317.632C495.581 324.642 498.118 330.974 502.197 335.58C506.305 340.185 511.955 342.996 518.208 342.996C524.462 342.996 530.111 340.151 534.22 335.58C538.329 330.974 540.836 324.642 540.836 317.632V209H540.866Z" fill="black"/>
<path d="M613.553 209H568.267V424.301C568.267 431.311 570.805 437.643 574.883 442.248C578.992 446.854 584.641 449.664 590.895 449.664C597.148 449.664 602.798 446.82 606.906 442.248C611.015 437.643 613.523 431.311 613.523 424.301V275.947V209H613.553Z" fill="black"/>
<path d="M686.209 209H640.924V275.947C640.924 282.957 643.461 289.289 647.54 293.894C651.648 298.5 657.298 301.31 663.551 301.31V301.378C669.775 301.378 675.424 298.5 679.563 293.894C683.672 289.289 686.179 282.957 686.179 275.947V209H686.209Z" fill="black"/>
<path d="M136.981 815.689H883.847L926.957 705.939H96.4989L136.981 815.689Z" fill="black"/>
<path d="M42.2106 675.226H75.8047C75.9558 675.226 76.1068 675.226 76.2881 675.226H947.954H981.789C990.128 675.226 997.68 671.433 1003.15 665.304C1008.62 659.175 1012 650.709 1012 641.363V640.482C1012 631.136 1008.62 622.67 1003.15 616.541C997.68 610.412 990.128 606.619 981.789 606.619V606.552H923.241C922.849 606.585 922.456 606.619 922.033 606.619H101.967C101.544 606.619 101.151 606.585 100.759 606.552H42.2106V606.619C33.8725 606.619 26.3198 610.412 20.8517 616.541C15.3836 622.67 12 631.136 12 640.482V641.363C12 650.709 15.3836 659.175 20.8517 665.304C26.3198 671.433 33.8725 675.226 42.2106 675.226Z" fill="black"/>
<path fill-rule="evenodd" clip-rule="evenodd" d="M253.503 284.04C245.951 284.04 239.818 277.166 239.818 268.7C239.818 260.235 245.951 253.361 253.503 253.361H378.092C385.644 253.361 391.777 260.235 391.777 268.7C391.777 277.166 385.644 284.04 378.092 284.04H253.503ZM540.866 424.301V367.648C534.069 371.508 526.365 373.71 518.238 373.71C504.432 373.71 491.925 367.445 482.862 357.286C473.799 347.127 468.21 333.108 468.21 317.632V209H169.155C154.382 209 140.999 215.705 131.332 226.575C121.664 237.411 115.652 252.412 115.652 268.971V575.939H908.317V268.971C908.317 252.412 902.336 237.411 892.638 226.575C882.971 215.739 869.587 209 854.814 209H713.61V275.947C713.61 291.422 708.021 305.442 698.958 315.601C689.925 325.726 677.418 331.956 663.582 331.956V332.024C655.425 332.024 647.751 329.823 640.954 325.963V424.301C640.954 439.776 635.365 453.796 626.302 463.954C617.238 474.113 604.731 480.378 590.925 480.378C577.119 480.378 564.612 474.113 555.549 463.954C546.485 453.829 540.866 439.81 540.866 424.301ZM195.106 284.514H171.3C163.748 284.514 157.615 277.64 157.615 269.175C157.615 260.709 163.748 253.835 171.3 253.835H195.106C202.659 253.835 208.792 260.709 208.792 269.175C208.792 277.64 202.659 284.514 195.106 284.514Z" fill="black"/>
</svg>
