<svg width="1000" height="800" viewBox="0 0 1000 800" fill="none" xmlns="http://www.w3.org/2000/svg">
<path d="M989.327 255.765L680.285 8.53113C673.455 3.06865 664.192 0 654.535 0C644.877 0 635.614 3.06865 628.784 8.53113L10.6639 503.013C3.83582 508.477 0 515.887 0 523.613C0 531.339 3.83582 538.749 10.6639 544.213L319.706 791.462C326.536 796.924 335.798 799.993 345.456 799.993C355.114 799.993 364.377 796.924 371.207 791.462L989.327 296.98C992.711 294.274 995.395 291.061 997.226 287.526C999.057 283.99 1000 280.2 1000 276.372C1000 272.545 999.057 268.755 997.226 265.219C995.395 261.683 992.711 258.47 989.327 255.765ZM654.516 70.3468L757.555 152.763L661.036 229.978L558.016 147.562L654.516 70.3468ZM499.995 441.197L603.016 523.613L493.549 611.245L390.529 528.829L499.995 441.197ZM339.028 487.57L235.935 405.154L345.402 317.58L448.495 399.996L339.028 487.57ZM551.496 399.996L660.963 312.423L764.056 394.839L654.589 482.412L551.496 399.996ZM499.995 358.796L396.975 276.38L506.442 188.748L609.462 271.164L499.995 358.796ZM184.507 446.354L287.527 528.77L191.008 605.985L87.9153 523.613L184.507 446.354ZM345.474 729.646L242.454 647.244L338.973 570.029L441.993 652.445L345.474 729.646ZM815.484 353.638L712.464 271.222L808.983 194.007L912.003 276.423L815.484 353.638Z" fill="black"/>
</svg>
