<svg width="1024" height="1024" viewBox="0 0 1024 1024" fill="none" xmlns="http://www.w3.org/2000/svg">
<g clip-path="url(#clip0_6_26)">
<path d="M103 315.571C103.005 310.836 104.888 306.298 108.236 302.95C111.584 299.602 116.123 297.719 120.857 297.714H942.284C947.018 297.719 951.557 299.602 954.905 302.95C958.253 306.298 960.136 310.836 960.141 315.571V458.428C960.136 463.162 958.253 467.701 954.905 471.049C951.557 474.396 947.018 476.279 942.284 476.285H120.857C116.123 476.279 111.584 474.396 108.236 471.049C104.888 467.701 103.005 463.162 103 458.428V315.571ZM610.394 44.6517L827.746 262H235.395L452.747 44.6517C463.098 34.2999 475.387 26.0884 488.911 20.4859C502.436 14.8835 516.932 12 531.571 12C546.21 12 560.705 14.8835 574.23 20.4859C587.755 26.0884 600.043 34.2999 610.394 44.6517ZM442.285 119.143H406.571V154.857H442.285V119.143ZM495.856 190.571H460.142V226.285H495.856V190.571ZM638.713 119.143H602.999V154.857H638.713V119.143ZM817.284 797.713H781.57V886.998C781.57 891.734 779.689 896.276 776.34 899.625C772.991 902.974 768.449 904.855 763.713 904.855H599.611C548.293 904.891 498.604 922.88 459.158 955.706C441.909 970.042 430.21 989.953 426.082 1012H817.284V797.713ZM745.856 869.141V846.134L623.265 750.784C620.532 748.653 617.462 746.993 614.182 745.874C608.889 744.077 603.215 743.709 597.734 744.807C592.252 745.904 587.158 748.428 582.963 752.123L452.852 867.773C449.532 870.73 446.875 874.355 445.054 878.41C443.233 882.466 442.289 886.861 442.285 891.306V923.498C487.192 888.331 542.572 869.196 599.611 869.141H745.856ZM392.062 940.57H139.964C133.272 940.57 126.706 938.753 120.965 935.313C115.225 931.873 110.526 926.94 107.369 921.039C104.213 915.138 102.718 908.49 103.044 901.806C103.37 895.122 105.504 888.652 109.219 883.085L171.428 789.762C173.384 786.828 174.428 783.381 174.428 779.856V511.999H888.713V779.856C888.713 783.381 889.757 786.828 891.713 789.762L929.338 846.184C909.472 849.534 889.364 851.24 869.217 851.284H852.999V779.856C852.999 775.12 851.117 770.578 847.768 767.229C844.419 763.88 839.877 761.999 835.141 761.999H695.856L645.186 722.592C632.788 712.951 617.405 707.955 601.708 708.47C586.01 708.985 570.989 714.98 559.249 725.414L429.116 841.07C422.028 847.38 416.355 855.119 412.47 863.777C408.584 872.435 406.574 881.816 406.571 891.306V892.322C399.863 907.781 394.993 923.974 392.062 940.57ZM245.857 619.142H210.143V761.999H245.857V619.142ZM245.857 547.713H210.143V583.427H245.857V547.713ZM1049.43 958.427C1056.79 958.427 1064.07 956.911 1070.81 953.973C1077.56 951.036 1083.63 946.739 1088.64 941.352C1093.66 935.965 1097.51 929.603 1099.95 922.663C1102.4 915.722 1103.39 908.352 1102.86 901.012C1101.93 888.156 1096.4 876.065 1087.28 866.956C1078.16 857.847 1066.06 852.329 1053.21 851.414C1045.28 850.842 1037.33 852.047 1029.94 854.943C975.599 876.213 921.525 886.998 869.217 886.998H852.999V922.712H865.499C924.599 922.712 979.434 933.3 1028.48 954.186C1035.11 957.002 1042.23 958.445 1049.43 958.427Z" fill="black"/>
</g>
<defs>
<clipPath id="clip0_6_26">
<rect width="1024" height="1024" fill="white"/>
</clipPath>
</defs>
</svg>
