<svg width="1024" height="1024" viewBox="0 0 1024 1024" fill="none" xmlns="http://www.w3.org/2000/svg">
<path d="M874.777 59.2103C866.332 41.4649 853.447 22.8834 835.577 18.9512C828.438 61.2532 805.135 100.711 766.192 136.345C764.618 137.784 762.636 138.495 760.661 138.495C758.442 138.495 756.229 137.597 754.612 135.831C751.557 132.491 751.786 127.307 755.126 124.251C790.476 91.906 811.873 56.4788 818.92 18.8262C777.968 23.9941 738.098 60.616 717.037 94.8424C695.384 130.03 631.595 268.954 583.785 411.688C614.307 379.681 670.996 307.279 725.873 237.189C781.208 164.263 834.214 96.8916 874.777 59.2103Z" fill="black"/>
<path d="M65.9595 144.443C72.2975 154.789 76.0043 168.532 79.9304 183.083C85.2541 202.818 91.2867 225.184 105.018 243.512C120.472 264.146 296.113 374.573 438.09 460.841C423.763 428.84 416.554 395.013 416.691 359.912C416.71 355.396 420.376 351.748 424.888 351.748C424.898 351.748 424.91 351.748 424.921 351.748C429.447 351.767 433.103 355.451 433.084 359.978C432.924 401.183 443.602 440.547 464.778 477.015C473.167 482.085 481.374 487.029 489.374 491.836C498.445 484.787 507.238 477.878 515.656 471.163C493.07 451.94 477.194 426.892 468.444 396.522C467.192 392.171 469.7 387.63 474.05 386.376C478.396 385.122 482.941 387.632 484.195 391.983C492.339 420.24 507.293 443.315 528.672 460.684C539.698 451.715 549.847 443.203 558.824 435.307C563.089 421.902 567.527 408.47 572.095 395.091C552.802 377.991 467.483 302.58 374.797 223.856C323.706 180.464 281.974 145.885 247.862 118.347L321.362 245.151C323.632 249.067 322.298 254.081 318.381 256.353C317.088 257.101 315.674 257.46 314.278 257.46C311.45 257.46 308.698 255.995 307.18 253.372L212.636 90.266C135.603 29.7289 109.237 15.5223 100.428 13.6904C88.7294 11.2622 78.619 11.6535 70.0352 13.5756C85.625 25.5589 111.979 47.0726 126.263 65.8118C136.769 79.5963 146.775 102.762 157.365 127.288C167.67 151.152 178.325 175.825 188.776 189.517C209.011 216.027 249.676 235.772 250.083 235.969C254.163 237.93 255.882 242.825 253.923 246.905C252.514 249.841 249.583 251.556 246.53 251.556C245.342 251.556 244.135 251.296 242.991 250.747C241.18 249.878 198.394 229.137 175.745 199.464C164.074 184.171 153.012 158.557 142.318 133.787C132.585 111.245 122.517 87.9362 113.229 75.7501C97.389 54.974 63.7117 29.1981 52.1239 20.6062C46.3945 23.9544 41.9787 27.7351 38.8476 30.905C26.1943 43.7039 19.84 60.9308 22.6616 74.7911C26.8439 95.3397 37.8128 108.524 49.4293 122.478C55.1648 129.374 61.097 136.504 65.9595 144.443Z" fill="black"/>
<path d="M695.61 949.157C689.276 944.516 680.565 945.143 674.897 950.643C661.047 964.087 637.999 980.114 606.852 980.114C554.94 980.114 532.285 947.711 531.344 946.332C528.797 942.59 529.764 937.492 533.508 934.943C537.25 932.4 542.348 933.363 544.897 937.107C545.628 938.156 563.968 963.721 606.852 963.721C619.639 963.721 630.845 960.362 640.318 955.592C623.327 943.52 594.236 915.91 588.941 865.871C583.281 812.393 623.944 634.476 641.888 559.665L569.826 651.133C566.538 668.338 543.571 790.023 543.571 832.157C543.571 875.086 571.865 908.39 572.15 908.722C575.105 912.15 574.724 917.326 571.296 920.283C569.747 921.617 567.841 922.273 565.948 922.273C563.644 922.273 561.357 921.308 559.737 919.429C558.409 917.888 527.178 881.112 527.178 832.157C527.178 798.5 540.59 719.664 548.503 676.083C534.514 691.714 520.957 705.173 508.576 714.439C487.821 804.713 479.272 874.93 485.126 907.349C497.31 974.835 538.872 1012 602.155 1012C647.103 1012 678.684 991.156 697.263 973.669C700.679 970.456 702.472 965.905 702.181 961.188C701.884 956.383 699.489 951.998 695.61 949.157Z" fill="black"/>
<path d="M1000.73 706.644C998.866 701.705 995.128 697.931 990.206 696.015C982.063 692.853 972.807 695.832 968.205 703.119C950.267 731.501 924.071 747.132 894.442 747.132C834.604 747.132 799.252 693.345 797.777 691.056C795.324 687.251 796.421 682.177 800.226 679.726C804.031 677.278 809.103 678.37 811.555 682.173C812.088 682.986 837.897 721.709 879.947 729.403C865.902 703.857 834.299 648.061 810.652 618.849C783.841 585.731 710.157 526.608 689.907 510.592C679.217 519.647 670.752 527.151 665.381 532.548C664.094 537.737 660.578 552.005 655.851 571.93L748.692 647.219C752.209 650.069 752.748 655.231 749.895 658.747C748.274 660.745 745.91 661.78 743.525 661.78C741.711 661.78 739.885 661.182 738.367 659.948L651.681 589.651C649.214 600.229 646.546 611.831 643.775 624.111C649.103 637.777 663.199 668.698 677.256 679.552C685.914 686.234 700.218 690.289 715.364 694.582C732.16 699.342 749.526 704.269 762.719 713.713C770.28 719.129 776.075 727.993 782.784 738.259C799.439 763.744 822.25 798.647 888.881 798.647C950.603 798.647 984.905 750.294 999.857 721.473C1002.27 716.822 1002.58 711.555 1000.73 706.644Z" fill="black"/>
<path d="M599.447 587.203C619.194 561.697 637.845 537.608 652.035 522.75C666.063 508.062 702.694 478.476 749.071 441.016C827.684 377.522 935.347 290.564 960.164 251.182C997.081 192.595 1007.96 104.926 995.747 77.0677C936.507 193.796 860.201 287.15 762.78 362.162C761.29 363.312 759.53 363.865 757.784 363.865C755.327 363.865 752.899 362.767 751.284 360.668C748.522 357.082 749.192 351.935 752.778 349.175C849.609 274.615 925.173 181.47 983.643 64.6173C959.686 50.4558 913.147 50.9373 882.57 73.7707C863.462 88.0387 800.078 168.995 738.781 247.288C687.401 313.424 637.298 375.137 589.498 429.252L581.013 522.5C580.625 526.756 577.05 529.954 572.859 529.954C572.609 529.954 572.359 529.944 572.107 529.919C567.599 529.51 564.277 525.522 564.687 521.014L571.517 445.957C562.577 453.877 552.458 462.405 541.481 471.372L525.983 573.594C525.369 577.652 521.875 580.564 517.889 580.564C517.482 580.564 517.068 580.531 516.652 580.469C512.176 579.791 509.097 575.613 509.777 571.136L522.596 486.579C492.913 510.168 458.887 535.952 425.429 561.306C358.673 611.895 289.642 664.203 268.454 689.628C252.071 709.287 238.633 741.491 225.636 772.636C213.757 801.098 201.64 830.104 186.45 852.14C202.306 847.664 223.785 839.298 240.885 824.194C257.68 809.36 272.765 784.039 288.736 757.233C303.113 733.102 317.979 708.152 335.567 688.429C372.353 647.187 440.976 596.106 443.879 593.955C447.512 591.252 452.65 592.018 455.344 595.651C458.043 599.286 457.283 604.419 453.647 607.118C452.949 607.637 383.463 659.36 347.802 699.341C331.257 717.894 316.801 742.159 302.818 765.626C286.173 793.564 270.45 819.952 251.735 836.482C221.109 863.535 179.817 871.178 168.832 872.791C162.078 878.903 154.732 883.614 146.636 886.512C126.591 893.677 106.135 890.973 87.4796 878.668C80.9921 874.389 74.9329 869.035 69.4412 862.871C70.4432 878.545 74.603 898.548 87.9817 911.47C111.93 934.599 149.912 921.279 150.293 921.144C154.543 919.607 159.244 921.806 160.787 926.054C162.33 930.302 160.15 934.992 155.906 936.545C154.89 936.918 141.808 941.568 125.071 941.568C109.829 941.568 91.5594 937.713 76.5947 923.259C49.3803 896.975 52.2225 851.402 53.4704 839.685C49.1037 831.454 45.5526 822.63 43.0362 813.508C25.6781 855.683 27.6268 909.189 43.4153 936.359C62.923 969.927 120.895 1004.87 174.672 980.253C204.884 966.423 234.504 925.957 263.149 886.825C286.8 854.513 311.256 821.104 337.216 800.83C369.689 775.47 400.983 758.413 431.248 741.918C454.231 729.393 475.94 717.56 496.525 702.941C526.092 681.948 565.062 631.613 599.447 587.203ZM842.79 179.483C872.506 153.045 896.786 122.919 914.95 89.9465C917.134 85.9794 922.122 84.5388 926.083 86.7211C930.048 88.9055 931.492 93.891 929.308 97.8561C910.243 132.468 884.801 164.053 853.687 191.732C852.126 193.124 850.181 193.806 848.243 193.806C845.982 193.806 843.735 192.878 842.116 191.058C839.106 187.673 839.409 182.491 842.79 179.483Z" fill="black"/>
</svg>
