<svg xmlns="http://www.w3.org/2000/svg" height="20" viewBox="0 -960 960 960" width="20"><path d="M201-232v-331q0-15.849 6.75-29.675Q214.5-606.5 228-617l212-159q19-13 40-13t40 13l212 159q13.5 10.5 20.25 24.325Q759-578.849 759-563v331q0 32.65-23.175 55.825Q712.65-153 680-153h-92q-13.8 0-23.65-9.85-9.85-9.85-9.85-23.65v-193q0-13.8-9.825-23.65-9.825-9.85-23.587-9.85h-81.825q-13.763 0-23.763 9.85-10 9.85-10 23.65v193q0 13.8-9.85 23.65Q385.8-153 372-153h-92q-32.65 0-55.825-23.175Q201-199.35 201-232Z"/></svg>